<svg width="392" height="100" viewBox="0 0 392 100" fill="none" xmlns="http://www.w3.org/2000/svg">
<path d="M351.87 58.6406V60.8871L346.455 62.3848L334.588 81.682V95.2189L340.003 96.7166V98.9632H323.529V96.7166L328.828 95.2189V81.8549L316.904 62.2696L312.008 60.8871V58.6406H328.482V60.8871L323.471 62.2696L333.148 78.6867L342.711 62.3848H342.653L337.929 60.8871V58.6406H351.87Z" fill="#141117"/>
<path d="M301.907 58.6406L301.85 69.0668H300.237L296.954 61.8088H288.543V95.2189L293.958 96.7166V98.9632H277.483V96.7166L282.783 95.2189V61.8088H274.373L271.032 69.0668H269.419V58.6406H301.907Z" fill="#141117"/>
<path d="M244.09 58.6406H257.627V60.8871L252.789 62.3848V86.1751C252.789 95.0461 246.51 100 237.927 100C228.941 100 222.95 95.5645 222.95 86.4056V62.3848L217.65 60.8871V58.6406H234.125V60.8871L228.71 62.3848V86.5784C228.71 93.318 231.245 97.1198 238.042 97.1198C245.3 97.1198 249.39 93.4332 249.39 86.5784V62.3848L244.09 60.8871V58.6406Z" fill="#141117"/>
<path d="M189.613 57.6037C200.846 57.6037 208.507 66.7051 208.392 78.8018C208.507 90.9562 200.846 100 189.613 100C178.38 100 170.719 90.9562 170.834 78.8018C170.719 66.7051 178.38 57.6037 189.613 57.6037ZM189.613 97.1198C199.06 97.1198 202.055 89.2281 202.171 78.8018C202.286 68.4332 199.06 60.4839 189.613 60.4839C180.166 60.4839 176.883 68.4332 176.998 78.8018C177.113 89.2281 180.166 97.1198 189.613 97.1198Z" fill="#141117"/>
<path d="M137.496 95.2189L142.335 96.7166V98.9632H126.437V96.7166L131.736 95.2189V62.3848L126.437 60.8871V58.6406H142.911V60.8871L137.496 62.3848V95.2189ZM161.46 95.2189L165.434 96.7166V98.9632H149.766V96.7166L154.086 95.2189L138.13 77.189L153.165 62.3848L149.478 60.8871V58.6406H163.533V60.8871L158.81 62.3848L143.487 75.9793L161.46 95.2189Z" fill="#141117"/>
<path d="M363.309 37.6152L368.148 39.1129V41.3594H352.249V39.1129L357.549 37.6152V4.78109L352.249 3.2834V1.03685H368.724V3.2834L363.309 4.78109V37.6152ZM387.272 37.6152L391.247 39.1129V41.3594H375.579V39.1129L379.899 37.6152L363.943 19.5852L378.977 4.78109L375.291 3.2834V1.03685H389.346V3.2834L384.622 4.78109L369.3 18.3756L387.272 37.6152Z" fill="#141117"/>
<path d="M323.999 0C335.232 0 342.893 9.10139 342.778 21.1982C342.893 33.3525 335.232 42.3963 323.999 42.3963C312.766 42.3963 305.105 33.3525 305.22 21.1982C305.105 9.10139 312.766 0 323.999 0ZM323.999 39.5161C333.446 39.5161 336.441 31.6244 336.556 21.1982C336.672 10.8295 333.446 2.88018 323.999 2.88018C314.552 2.88018 311.268 10.8295 311.384 21.1982C311.499 31.6244 314.552 39.5161 323.999 39.5161Z" fill="#141117"/>
<path d="M294.804 1.03685L294.746 11.4631H293.133L289.85 4.20505H281.44V37.6152L286.855 39.1129V41.3594H270.38V39.1129L275.679 37.6152V4.20505H267.269L263.928 11.4631H262.315V1.03685H294.804Z" fill="#141117"/>
<path d="M236.699 1.03685H250.236V3.2834L245.397 4.78109V28.5714C245.397 37.4424 239.118 42.3963 230.535 42.3963C221.549 42.3963 215.558 37.9608 215.558 28.8018V4.78109L210.259 3.2834V1.03685H226.733V3.2834L221.319 4.78109V28.9746C221.319 35.7143 223.853 39.5161 230.65 39.5161C237.909 39.5161 241.998 35.8295 241.998 28.9746V4.78109L236.699 3.2834V1.03685Z" fill="#141117"/>
<path d="M182.221 0C193.454 0 201.115 9.10139 201 21.1982C201.115 33.3525 193.454 42.3963 182.221 42.3963C170.989 42.3963 163.327 33.3525 163.443 21.1982C163.327 9.10139 170.989 0 182.221 0ZM182.221 39.5161C191.668 39.5161 194.664 31.6244 194.779 21.1982C194.894 10.8295 191.668 2.88018 182.221 2.88018C172.774 2.88018 169.491 10.8295 169.606 21.1982C169.721 31.6244 172.774 39.5161 182.221 39.5161Z" fill="#141117"/>
<path d="M141.241 16.7051C148.672 20.0461 153.107 23.5023 153.107 30.5876C153.107 37.3848 147.635 42.3963 138.879 42.3963C133.522 42.3963 129.144 41.2442 126.437 40.3226L126.494 30.0115H128.107L131.045 36.8088C132.6 38.2489 135.884 39.6889 138.879 39.6889C144.178 39.6889 148.384 37.212 148.384 31.8548C148.384 26.2673 143.142 24.5968 137.669 22.1774C132.543 19.9309 127.819 16.2442 127.819 10.2535C127.819 4.08986 132.946 0 140.492 0C144.351 0 148.038 0.979263 150.457 1.72811L150.284 11.5207H148.672L145.734 4.49309C144.178 3.34102 141.932 2.59217 139.34 2.59217C135.653 2.59217 132.6 4.95392 132.6 8.75576C132.6 12.0392 135.192 14.1129 141.241 16.7051Z" fill="#141117"/>
<path fill-rule="evenodd" clip-rule="evenodd" d="M99.95 0H0V99.95H99.95V0ZM49.9737 19.99C56.2692 19.99 61.8015 23.2494 64.9668 28.1687C68.1321 23.2494 73.6645 19.99 79.96 19.99V25.5939C73.231 25.5939 67.7761 31.0348 67.7761 37.7465H62.1576C62.1576 31.0353 56.7034 25.5947 49.975 25.5939C43.2466 25.5947 37.7924 31.0353 37.7924 37.7465H32.174L32.173 37.5893C32.0886 30.9501 26.6664 25.5939 19.99 25.5939V19.99C26.2856 19.99 31.8179 23.2494 34.9832 28.1687C38.148 23.2502 43.6792 19.9909 49.9737 19.99ZM19.99 52.6421V47.0383H79.96V52.6421H19.99ZM37.7924 62.2035C37.7924 68.9147 43.2466 74.3552 49.975 74.3559C56.7034 74.3552 62.1576 68.9147 62.1576 62.2035H67.7761L67.7771 62.3605C67.8614 68.9998 73.2836 74.356 79.96 74.356V79.9598C73.6644 79.9598 68.1321 76.7004 64.9668 71.781C61.802 76.6997 56.2708 79.9588 49.9764 79.9597H49.975L49.9737 79.9598C43.6792 79.9589 38.148 76.6997 34.9832 71.781C31.8179 76.7004 26.2856 79.9598 19.99 79.9598V74.356C26.719 74.356 32.174 68.9151 32.174 62.2035H37.7924Z" fill="#141117"/>
</svg>
