<svg width="350" height="323" viewBox="0 0 350 323" fill="none" xmlns="http://www.w3.org/2000/svg">
<path d="M324.911 267.842V270.811L317.754 272.79L302.07 298.295V316.187L309.227 318.167V321.136H287.453V318.167L294.457 316.187V298.524L278.697 272.638L272.226 270.811V267.842H294V270.811L287.376 272.638L300.167 294.336L312.805 272.79H312.729L306.486 270.811V267.842H324.911Z" fill="#141117"/>
<path d="M258.877 267.842L258.801 281.622H256.67L252.33 272.029H241.214V316.187L248.371 318.167V321.136H226.596V318.167L233.601 316.187V272.029H222.485L218.069 281.622H215.938V267.842H258.877Z" fill="#141117"/>
<path d="M182.459 267.842H200.351V270.811L193.956 272.79V304.234C193.956 315.959 185.657 322.506 174.313 322.506C162.436 322.506 154.518 316.644 154.518 304.539V272.79L147.514 270.811V267.842H169.288V270.811L162.132 272.79V304.767C162.132 313.675 165.481 318.7 174.465 318.7C184.058 318.7 189.464 313.827 189.464 304.767V272.79L182.459 270.811V267.842Z" fill="#141117"/>
<path d="M110.507 266.471C125.353 266.471 135.479 278.5 135.327 294.489C135.479 310.553 125.353 322.506 110.507 322.506C95.6609 322.506 85.535 310.553 85.6872 294.489C85.535 278.5 95.6609 266.471 110.507 266.471ZM110.507 318.699C122.993 318.699 126.952 308.269 127.104 294.489C127.257 280.784 122.993 270.278 110.507 270.278C98.021 270.278 93.6814 280.784 93.8336 294.489C93.9859 308.269 98.021 318.699 110.507 318.699Z" fill="#141117"/>
<path d="M41.5739 316.187L47.9692 318.167V321.136H26.9561V318.167L33.9604 316.187V272.79L26.9561 270.811V267.842H48.7306V270.811L41.5739 272.79V316.187ZM73.2459 316.187L78.4992 318.167V321.136H57.7906V318.167L63.5007 316.187L42.4114 292.357L62.2825 272.79L57.4099 270.811V267.842H75.9868V270.811L69.7437 272.79L49.4919 290.758L73.2459 316.187Z" fill="#141117"/>
<path d="M313.075 240.052L319.47 242.032V245.001H298.457V242.032L305.461 240.052V196.656L298.457 194.676V191.707H320.232V194.676L313.075 196.656V240.052ZM344.747 240.052L350 242.032V245.001H329.292V242.032L335.002 240.052L313.912 216.222L333.783 196.656L328.911 194.676V191.707H347.488V194.676L341.245 196.656L320.993 214.623L344.747 240.052Z" fill="#141117"/>
<path d="M261.497 190.337C276.344 190.337 286.47 202.366 286.317 218.354C286.47 234.418 276.344 246.372 261.497 246.372C246.651 246.372 236.525 234.418 236.677 218.354C236.525 202.366 246.651 190.337 261.497 190.337ZM261.497 242.565C273.983 242.565 277.942 232.134 278.095 218.354C278.247 204.65 273.983 194.143 261.497 194.143C249.011 194.143 244.672 204.65 244.824 218.354C244.976 232.134 249.011 242.565 261.497 242.565Z" fill="#141117"/>
<path d="M222.532 191.707L222.456 205.487H220.324L215.984 195.894H204.868V240.052L212.025 242.032V245.001H190.251V242.032L197.255 240.052V195.894H186.139L181.724 205.487H179.592V191.707H222.532Z" fill="#141117"/>
<path d="M145.734 191.707H163.625V194.676L157.23 196.656V228.099C157.23 239.824 148.932 246.372 137.587 246.372C125.71 246.372 117.792 240.509 117.792 228.404V196.656L110.788 194.676V191.707H132.563V194.676L125.406 196.656V228.632C125.406 237.54 128.756 242.565 137.74 242.565C147.333 242.565 152.738 237.692 152.738 228.632V196.656L145.734 194.676V191.707Z" fill="#141117"/>
<path d="M73.7815 190.337C88.6278 190.337 98.7537 202.366 98.6014 218.354C98.7537 234.418 88.6278 246.372 73.7815 246.372C58.9353 246.372 48.8094 234.418 48.9617 218.354C48.8094 202.366 58.9353 190.337 73.7815 190.337ZM73.7815 242.565C86.2676 242.565 90.2266 232.134 90.3789 218.354C90.5311 204.65 86.2676 194.143 73.7815 194.143C61.2955 194.143 56.9558 204.65 57.1081 218.354C57.2603 232.134 61.2955 242.565 73.7815 242.565Z" fill="#141117"/>
<path d="M19.5666 212.416C29.388 216.831 35.2503 221.399 35.2503 230.764C35.2503 239.748 28.0175 246.372 16.4451 246.372C9.36456 246.372 3.57833 244.849 0 243.631L0.0761347 230.003H2.2079L6.09077 238.987C8.1464 240.89 12.4861 242.793 16.4451 242.793C23.4495 242.793 29.0073 239.52 29.0073 232.439C29.0073 225.054 22.079 222.846 14.8462 219.648C8.07027 216.679 1.82723 211.807 1.82723 203.889C1.82723 195.742 8.60321 190.337 18.5768 190.337C23.6779 190.337 28.5505 191.631 31.7481 192.621L31.5197 205.563H29.388L25.5051 196.275C23.4495 194.752 20.4802 193.763 17.0542 193.763C12.1815 193.763 8.1464 196.884 8.1464 201.909C8.1464 206.249 11.5725 208.99 19.5666 212.416Z" fill="#141117"/>
<path fill-rule="evenodd" clip-rule="evenodd" d="M251.245 0H98.9756V152.269H251.245V0ZM175.108 30.4538C184.699 30.4538 193.127 35.4195 197.95 42.9138C202.772 35.4195 211.2 30.4538 220.791 30.4538V38.9912C210.54 38.9912 202.229 47.2801 202.229 57.505H193.67C193.67 47.2808 185.361 38.9923 175.11 38.9912C164.86 38.9923 156.551 47.2808 156.551 57.505H147.991L147.99 57.2656C147.861 47.151 139.601 38.9912 129.429 38.9912V30.4538C139.02 30.4538 147.449 35.4194 152.271 42.9138C157.092 35.4205 165.519 30.4553 175.108 30.4538ZM129.429 80.1979V71.6607H220.791V80.1979H129.429ZM156.551 94.7641C156.551 104.988 164.86 113.277 175.11 113.278C185.361 113.277 193.67 104.988 193.67 94.7641H202.229L202.231 95.0034C202.359 105.118 210.62 113.278 220.791 113.278V121.815C211.2 121.815 202.772 116.849 197.95 109.355C193.128 116.848 184.702 121.814 175.112 121.815H175.11L175.108 121.815C165.519 121.814 157.092 116.848 152.271 109.355C147.449 116.849 139.02 121.815 129.429 121.815V113.278C139.681 113.278 147.991 104.989 147.991 94.7641H156.551Z" fill="#141117"/>
</svg>
