<svg width="434" height="100" viewBox="0 0 434 100" fill="none" xmlns="http://www.w3.org/2000/svg">
<path d="M393.873 58.6421V60.8886L388.458 62.3863L376.591 81.6836V95.2204L382.006 96.7181V98.9647H365.531V96.7181L370.831 95.2204V81.8564L358.907 62.2711L354.011 60.8886V58.6421H370.485V60.8886L365.474 62.2711L375.151 78.6882L384.714 62.3863H384.656L379.932 60.8886V58.6421H393.873Z" fill="#EDE7DA"/>
<path d="M343.91 58.6421L343.853 69.0684H342.24L338.956 61.8103H330.546V95.2204L335.961 96.7181V98.9647H319.486V96.7181L324.786 95.2204V61.8103H316.376L313.035 69.0684H311.422V58.6421H343.91Z" fill="#EDE7DA"/>
<path d="M286.093 58.6421H299.63V60.8886L294.792 62.3863V86.1767C294.792 95.0476 288.513 100.002 279.93 100.002C270.944 100.002 264.953 95.5661 264.953 86.4071V62.3863L259.653 60.8886V58.6421H276.128V60.8886L270.713 62.3863V86.5799C270.713 93.3195 273.248 97.1214 280.045 97.1214C287.303 97.1214 291.393 93.4347 291.393 86.5799V62.3863L286.093 60.8886V58.6421Z" fill="#EDE7DA"/>
<path d="M231.616 57.6052C242.849 57.6052 250.51 66.7066 250.395 78.8034C250.51 90.9578 242.849 100.002 231.616 100.002C220.383 100.002 212.722 90.9578 212.837 78.8034C212.722 66.7066 220.383 57.6052 231.616 57.6052ZM231.616 97.1214C241.063 97.1214 244.058 89.2297 244.174 78.8034C244.289 68.4347 241.063 60.4854 231.616 60.4854C222.169 60.4854 218.886 68.4347 219.001 78.8034C219.116 89.2297 222.169 97.1214 231.616 97.1214Z" fill="#EDE7DA"/>
<path d="M179.499 95.2204L184.338 96.7181V98.9647H168.439V96.7181L173.739 95.2204V62.3863L168.439 60.8886V58.6421H184.914V60.8886L179.499 62.3863V95.2204ZM203.462 95.2204L207.437 96.7181V98.9647H191.769V96.7181L196.089 95.2204L180.133 77.1905L195.168 62.3863L191.481 60.8886V58.6421H205.536V60.8886L200.813 62.3863L185.49 75.9808L203.462 95.2204Z" fill="#EDE7DA"/>
<path d="M405.312 37.6167L410.151 39.1144V41.3609H394.252V39.1144L399.551 37.6167V4.78257L394.252 3.28488V1.03833H410.727V3.28488L405.312 4.78257V37.6167ZM429.275 37.6167L433.25 39.1144V41.3609H417.581V39.1144L421.902 37.6167L405.945 19.5867L420.98 4.78257L417.293 3.28488V1.03833H431.349V3.28488L426.625 4.78257L411.303 18.377L429.275 37.6167Z" fill="#EDE7DA"/>
<path d="M366.251 0.00146484C377.484 0.00146484 385.145 9.10285 385.03 21.1996C385.145 33.354 377.484 42.3978 366.251 42.3978C355.018 42.3978 347.357 33.354 347.472 21.1996C347.357 9.10285 355.018 0.00146484 366.251 0.00146484ZM366.251 39.5176C375.698 39.5176 378.693 31.6259 378.808 21.1996C378.924 10.831 375.698 2.88165 366.251 2.88165C356.804 2.88165 353.52 10.831 353.636 21.1996C353.751 31.6259 356.804 39.5176 366.251 39.5176Z" fill="#EDE7DA"/>
<path d="M336.807 1.03833L336.749 11.4646H335.136L331.853 4.20653H323.443V37.6167L328.858 39.1144V41.3609H312.383V39.1144L317.682 37.6167V4.20653H309.272L305.931 11.4646H304.318V1.03833H336.807Z" fill="#EDE7DA"/>
<path d="M278.702 1.03833H292.239V3.28488L287.4 4.78257V28.5729C287.4 37.4439 281.121 42.3978 272.538 42.3978C263.552 42.3978 257.561 37.9623 257.561 28.8033V4.78257L252.262 3.28488V1.03833H268.736V3.28488L263.322 4.78257V28.9761C263.322 35.7158 265.856 39.5176 272.653 39.5176C279.911 39.5176 284.001 35.831 284.001 28.9761V4.78257L278.702 3.28488V1.03833Z" fill="#EDE7DA"/>
<path d="M224.224 0.00146484C235.457 0.00146484 243.118 9.10285 243.003 21.1996C243.118 33.354 235.457 42.3978 224.224 42.3978C212.992 42.3978 205.33 33.354 205.446 21.1996C205.33 9.10285 212.992 0.00146484 224.224 0.00146484ZM224.224 39.5176C233.671 39.5176 236.667 31.6259 236.782 21.1996C236.897 10.831 233.671 2.88165 224.224 2.88165C214.777 2.88165 211.494 10.831 211.609 21.1996C211.724 31.6259 214.777 39.5176 224.224 39.5176Z" fill="#EDE7DA"/>
<path d="M183.244 16.7065C190.674 20.0476 195.11 23.5038 195.11 30.589C195.11 37.3863 189.638 42.3978 180.882 42.3978C175.525 42.3978 171.147 41.2457 168.439 40.3241L168.497 30.013H170.11L173.048 36.8102C174.603 38.2503 177.886 39.6904 180.882 39.6904C186.181 39.6904 190.386 37.2135 190.386 31.8563C190.386 26.2687 185.145 24.5982 179.672 22.1789C174.545 19.9323 169.822 16.2457 169.822 10.2549C169.822 4.09133 174.949 0.00146484 182.495 0.00146484C186.354 0.00146484 190.041 0.980728 192.46 1.72958L192.287 11.5222H190.674L187.737 4.49455C186.181 3.34248 183.935 2.59363 181.343 2.59363C177.656 2.59363 174.603 4.95538 174.603 8.75723C174.603 12.0406 177.195 14.1144 183.244 16.7065Z" fill="#EDE7DA"/>
<path fill-rule="evenodd" clip-rule="evenodd" d="M141.951 0.00146484H42.001V99.9515H141.951V0.00146484ZM91.9746 19.9915C98.2702 19.9915 103.803 23.2509 106.968 28.1702C110.133 23.2509 115.665 19.9915 121.961 19.9915V25.5954C115.232 25.5954 109.777 31.0363 109.777 37.7479H104.159C104.159 31.0367 98.7044 25.5961 91.976 25.5954C85.2476 25.5961 79.7934 31.0367 79.7934 37.7479H74.1749L74.174 37.5908C74.0896 30.9516 68.6674 25.5954 61.991 25.5954V19.9915C68.2865 19.9915 73.8189 23.2509 76.9842 28.1702C80.149 23.2516 85.6802 19.9924 91.9746 19.9915ZM61.991 52.6436V47.0398H121.961V52.6436H61.991ZM79.7934 62.2049C79.7934 68.9161 85.2476 74.3567 91.976 74.3574C98.7044 74.3566 104.159 68.9161 104.159 62.2049H109.777L109.778 62.362C109.862 69.0012 115.285 74.3575 121.961 74.3575V79.9613C115.665 79.9613 110.133 76.7018 106.968 71.7825C103.803 76.7011 98.2718 79.9603 91.9774 79.9612H91.976L91.9746 79.9613C85.6802 79.9604 80.149 76.7011 76.9842 71.7825C73.8189 76.7018 68.2866 79.9613 61.991 79.9613V74.3575C68.72 74.3575 74.1749 68.9166 74.1749 62.2049H79.7934Z" fill="#EDE7DA"/>
<path d="M8.12573 88.781C13.1802 88.781 16.1562 91.0248 16.1562 94.8275C16.1562 97.4492 14.621 99.3624 12.141 99.8112L12.141 97.9689C13.7235 97.6618 14.5974 96.5753 14.5974 94.8275C14.5974 92.0405 12.4717 90.6233 8.26745 90.6233C8.00764 90.6233 7.74783 90.6469 7.51163 90.6705C9.35393 91.4027 10.4876 93.1269 10.4876 95.1346C10.4876 97.9689 8.29107 100 5.26781 100C2.19732 100 0.000739653 97.898 0.000739783 94.922C0.000739947 91.1665 3.14209 88.781 8.12573 88.781ZM5.24419 91.1665C3.16571 91.1665 1.58322 92.749 1.58322 94.8275C1.58322 96.8351 3.04761 98.1578 5.24419 98.1578C7.44078 98.1578 8.90517 96.8351 8.90517 94.8275C8.90517 92.6545 7.41716 91.1665 5.24419 91.1665Z" fill="#EDE7DA"/>
<path d="M1.84242 77.8336L1.84242 86.4309L0.18908 86.4309L0.18908 75.8259L0.614225 75.8259C4.34605 75.8259 5.85768 78.5658 7.13311 80.9985C8.19598 82.9353 9.14074 84.6831 11.1484 84.6831C13.2505 84.6831 14.4787 83.3604 14.4787 81.1166C14.4787 79.109 13.1796 77.7627 11.1484 77.6682L11.1484 75.8259C14.1008 76.0385 16.1084 78.1642 16.1084 81.0694C16.1084 84.3524 14.1244 86.5254 11.1484 86.5254C8.52665 86.5254 7.1095 84.4233 5.92854 82.2976C4.70034 80.101 3.68472 77.8336 1.84242 77.8336Z" fill="#EDE7DA"/>
<path d="M7.86592 61.7617C13.0858 61.7617 16.1562 63.9347 16.1562 67.5484C16.1562 71.1385 13.0858 73.2643 7.86592 73.2643C2.9059 73.2643 0.000739641 71.1385 0.000739798 67.5484C0.000739957 63.9111 2.9059 61.7617 7.86592 61.7617ZM7.86592 71.422C12.2591 71.422 14.4793 70.1465 14.4793 67.5484C14.4793 64.9267 12.2591 63.604 7.86592 63.604C3.75619 63.604 1.70132 64.9267 1.70132 67.5484C1.70132 70.1465 3.75619 71.422 7.86592 71.422Z" fill="#EDE7DA"/>
<path d="M1.84242 50.8143L1.84242 59.4116L0.18908 59.4116L0.18908 48.8066L0.614225 48.8066C4.34605 48.8066 5.85768 51.5465 7.13311 53.9792C8.19598 55.916 9.14074 57.6638 11.1484 57.6638C13.2505 57.6638 14.4787 56.3412 14.4787 54.0973C14.4787 52.0897 13.1796 50.7434 11.1484 50.6489L11.1484 48.8066C14.1008 49.0192 16.1084 51.1449 16.1084 54.0501C16.1084 57.3332 14.1244 59.5061 11.1484 59.5061C8.52665 59.5061 7.1095 57.404 5.92854 55.2783C4.70034 53.0817 3.68472 50.8143 1.84242 50.8143Z" fill="#EDE7DA"/>
<path d="M2.40918 38.7693L2.40918 40.895L0.188978 40.895L0.188978 38.7693L2.40918 38.7693Z" fill="#EDE7DA"/>
<path d="M15.9199 37.3646L14.2193 37.3646L14.2193 32.6408L0.189559 32.6408L0.189559 30.8693L14.2193 30.8693L14.2193 26.1455L15.9199 26.1455L15.9199 37.3646Z" fill="#EDE7DA"/>
<path d="M7.08569 19.686L7.32189 17.702C7.67617 14.6552 9.11694 12.9782 11.5497 12.9782C14.3604 12.9782 16.1318 15.1512 16.1318 18.6468C16.1318 22.0007 14.2895 24.2209 11.2899 24.5044L11.2899 22.6857C13.4629 22.3314 14.5021 21.0796 14.5021 18.6232C14.5021 16.3085 13.3684 14.7733 11.6206 14.7733C10.2034 14.7733 9.44761 15.8361 9.16418 17.9382L8.92799 19.875C8.52646 23.1817 7.06208 24.8114 4.46397 24.8114C1.74776 24.8114 -5.57374e-05 22.5676 -5.55898e-05 19.19C-5.54277e-05 15.4818 1.9131 13.1908 4.86549 12.8601L4.86549 14.726C2.64529 15.1039 1.62967 16.5447 1.62967 19.2137C1.62967 21.4811 2.71615 23.0163 4.44035 23.0163C5.92836 23.0163 6.82588 21.9062 7.08569 19.686Z" fill="#EDE7DA"/>
<path d="M15.9199 10.6286L14.2193 10.6286L14.2193 1.79506L9.07036 1.79506L9.07036 9.94367L7.36978 9.94367L7.36978 1.79506L1.86652 1.79506L1.86652 10.6286L0.189559 10.6286L0.189559 -6.87596e-07L15.9199 0L15.9199 10.6286Z" fill="#EDE7DA"/>
</svg>
