<svg width="350" height="323" viewBox="0 0 350 323" fill="none" xmlns="http://www.w3.org/2000/svg">
<path d="M324.911 267.842V270.811L317.754 272.791L302.07 298.296V316.187L309.227 318.167V321.136H287.453V318.167L294.457 316.187V298.524L278.697 272.638L272.226 270.811V267.842H294V270.811L287.376 272.638L300.167 294.337L312.805 272.791H312.729L306.486 270.811V267.842H324.911Z" fill="black"/>
<path d="M258.876 267.842L258.8 281.622H256.669L252.329 272.029H241.213V316.187L248.37 318.167V321.136H226.595V318.167L233.6 316.187V272.029H222.484L218.068 281.622H215.937V267.842H258.876Z" fill="black"/>
<path d="M182.459 267.842H200.351V270.811L193.956 272.791V304.234C193.956 315.959 185.657 322.506 174.313 322.506C162.436 322.506 154.518 316.644 154.518 304.539V272.791L147.514 270.811V267.842H169.288V270.811L162.132 272.791V304.767C162.132 313.675 165.481 318.7 174.465 318.7C184.058 318.7 189.464 313.827 189.464 304.767V272.791L182.459 270.811V267.842Z" fill="black"/>
<path d="M110.507 266.471C125.353 266.471 135.479 278.501 135.327 294.489C135.479 310.553 125.353 322.507 110.507 322.507C95.6609 322.507 85.535 310.553 85.6872 294.489C85.535 278.501 95.6609 266.471 110.507 266.471ZM110.507 318.7C122.993 318.7 126.952 308.269 127.105 294.489C127.257 280.785 122.993 270.278 110.507 270.278C98.0211 270.278 93.6814 280.785 93.8336 294.489C93.9859 308.269 98.0211 318.7 110.507 318.7Z" fill="black"/>
<path d="M41.5739 316.187L47.9692 318.167V321.136H26.9561V318.167L33.9604 316.187V272.791L26.9561 270.811V267.842H48.7306V270.811L41.5739 272.791V316.187ZM73.2459 316.187L78.4992 318.167V321.136H57.7906V318.167L63.5007 316.187L42.4114 292.357L62.2825 272.791L57.4099 270.811V267.842H75.9868V270.811L69.7437 272.791L49.4919 290.758L73.2459 316.187Z" fill="black"/>
<path d="M313.075 240.053L319.47 242.032V245.001H298.457V242.032L305.461 240.053V196.656L298.457 194.676V191.707H320.232V194.676L313.075 196.656V240.053ZM344.747 240.053L350 242.032V245.001H329.292V242.032L335.002 240.053L313.912 216.222L333.784 196.656L328.911 194.676V191.707H347.488V194.676L341.245 196.656L320.993 214.624L344.747 240.053Z" fill="black"/>
<path d="M261.497 190.337C276.344 190.337 286.47 202.366 286.317 218.354C286.47 234.419 276.344 246.372 261.497 246.372C246.651 246.372 236.525 234.419 236.677 218.354C236.525 202.366 246.651 190.337 261.497 190.337ZM261.497 242.565C273.983 242.565 277.942 232.135 278.095 218.354C278.247 204.65 273.983 194.143 261.497 194.143C249.011 194.143 244.672 204.65 244.824 218.354C244.976 232.135 249.011 242.565 261.497 242.565Z" fill="black"/>
<path d="M222.532 191.707L222.456 205.487H220.324L215.984 195.894H204.869V240.053L212.025 242.032V245.001H190.251V242.032L197.255 240.053V195.894H186.139L181.724 205.487H179.592V191.707H222.532Z" fill="black"/>
<path d="M145.734 191.707H163.626V194.676L157.23 196.656V228.099C157.23 239.824 148.932 246.372 137.587 246.372C125.71 246.372 117.792 240.509 117.792 228.404V196.656L110.788 194.676V191.707H132.563V194.676L125.406 196.656V228.632C125.406 237.54 128.756 242.565 137.74 242.565C147.333 242.565 152.738 237.692 152.738 228.632V196.656L145.734 194.676V191.707Z" fill="black"/>
<path d="M73.7806 190.337C88.6268 190.337 98.7527 202.366 98.6005 218.354C98.7527 234.419 88.6268 246.372 73.7806 246.372C58.9343 246.372 48.8084 234.419 48.9607 218.354C48.8084 202.366 58.9343 190.337 73.7806 190.337ZM73.7806 242.565C86.2667 242.565 90.2257 232.135 90.3779 218.354C90.5302 204.65 86.2667 194.143 73.7806 194.143C61.2945 194.143 56.9548 204.65 57.1071 218.354C57.2594 232.135 61.2945 242.565 73.7806 242.565Z" fill="black"/>
<path d="M19.5666 212.416C29.388 216.832 35.2504 221.4 35.2504 230.764C35.2504 239.748 28.0176 246.372 16.4451 246.372C9.36457 246.372 3.57833 244.849 0 243.631L0.0761348 230.003H2.20791L6.09077 238.987C8.14641 240.89 12.4861 242.793 16.4451 242.793C23.4495 242.793 29.0073 239.52 29.0073 232.439C29.0073 225.054 22.0791 222.846 14.8463 219.649C8.07027 216.679 1.82723 211.807 1.82723 203.889C1.82723 195.742 8.60322 190.337 18.5769 190.337C23.6779 190.337 28.5505 191.631 31.7482 192.621L31.5198 205.564H29.388L25.5051 196.275C23.4495 194.752 20.4802 193.763 17.0542 193.763C12.1815 193.763 8.14641 196.884 8.14641 201.909C8.14641 206.249 11.5725 208.99 19.5666 212.416Z" fill="black"/>
<path d="M330.099 77.3957C330.099 72.6225 332.218 69.812 335.809 69.812C338.285 69.812 340.091 71.2618 340.515 73.6039H338.775C338.485 72.1094 337.459 71.2841 335.809 71.2841C333.177 71.2841 331.838 73.2916 331.838 77.2619C331.838 77.5073 331.861 77.7526 331.883 77.9757C332.574 76.2359 334.203 75.1652 336.099 75.1652C338.775 75.1652 340.694 77.2396 340.694 80.0947C340.694 82.9943 338.708 85.0687 335.898 85.0687C332.351 85.0687 330.099 82.1021 330.099 77.3957ZM332.351 80.117C332.351 82.0798 333.846 83.5742 335.809 83.5742C337.705 83.5742 338.954 82.1913 338.954 80.117C338.954 78.0426 337.705 76.6597 335.809 76.6597C333.757 76.6597 332.351 78.0649 332.351 80.117Z" fill="black"/>
<path d="M319.076 83.3287H327.195V84.8901H317.18V84.4886C317.18 80.9644 319.767 79.5368 322.064 78.3324C323.894 77.3286 325.544 76.4364 325.544 74.5405C325.544 72.5554 324.295 71.3955 322.176 71.3955C320.28 71.3955 319.009 72.6223 318.919 74.5405H317.18C317.38 71.7524 319.388 69.8564 322.131 69.8564C325.232 69.8564 327.284 71.7301 327.284 74.5405C327.284 77.0164 325.299 78.3547 323.291 79.4699C321.217 80.6298 319.076 81.5889 319.076 83.3287Z" fill="black"/>
<path d="M303.212 77.6411C303.212 72.7117 305.264 69.812 308.677 69.812C312.067 69.812 314.074 72.7117 314.074 77.6411C314.074 82.3252 312.067 85.0687 308.677 85.0687C305.242 85.0687 303.212 82.3252 303.212 77.6411ZM312.335 77.6411C312.335 73.4923 311.13 71.3957 308.677 71.3957C306.201 71.3957 304.952 73.4923 304.952 77.6411C304.952 81.5222 306.201 83.4627 308.677 83.4627C311.13 83.4627 312.335 81.5222 312.335 77.6411Z" fill="black"/>
<path d="M292.189 83.3287H300.308V84.8901H290.293V84.4886C290.293 80.9644 292.88 79.5368 295.178 78.3324C297.007 77.3286 298.657 76.4364 298.657 74.5405C298.657 72.5554 297.408 71.3955 295.289 71.3955C293.393 71.3955 292.122 72.6223 292.033 74.5405H290.293C290.494 71.7524 292.501 69.8564 295.245 69.8564C298.345 69.8564 300.397 71.7301 300.397 74.5405C300.397 77.0164 298.412 78.3547 296.405 79.4699C294.33 80.6298 292.189 81.5889 292.189 83.3287Z" fill="black"/>
<path fill-rule="evenodd" clip-rule="evenodd" d="M251.244 0H98.9746V152.269H251.244V0ZM175.107 30.4539C184.698 30.4539 193.126 35.4195 197.949 42.9138C202.771 35.4195 211.199 30.4539 220.79 30.4539V38.9912C210.539 38.9912 202.228 47.2802 202.228 57.505H193.669C193.669 47.2808 185.36 38.9923 175.109 38.9912C164.859 38.9923 156.55 47.2808 156.55 57.505H147.99L147.989 57.2656C147.86 47.1511 139.6 38.9912 129.428 38.9912V30.4539C139.019 30.4539 147.448 35.4195 152.27 42.9138C157.091 35.4206 165.518 30.4553 175.107 30.4539ZM129.428 80.1979V71.6607H220.79V80.1979H129.428ZM156.55 94.7642C156.55 104.988 164.859 113.277 175.109 113.278C185.36 113.277 193.669 104.988 193.669 94.7642H202.228L202.23 95.0034C202.358 105.118 210.619 113.278 220.79 113.278V121.815C211.199 121.815 202.771 116.85 197.949 109.355C193.127 116.848 184.701 121.814 175.111 121.815H175.109L175.107 121.815C165.518 121.814 157.091 116.848 152.27 109.355C147.448 116.85 139.02 121.815 129.428 121.815V113.278C139.68 113.278 147.99 104.989 147.99 94.7642H156.55Z" fill="black"/>
<path d="M57.9961 82.7415H59.9697V84.8028H57.9961V82.7415Z" fill="black"/>
<path d="M56.6919 70.1968V71.7757H52.306V84.8018H50.6613V71.7757H46.2754V70.1968H56.6919Z" fill="black"/>
<path d="M40.278 78.399L38.436 78.1797C35.6071 77.8508 34.0501 76.5131 34.0501 74.2543C34.0501 71.6447 36.0676 70 39.3132 70C42.4271 70 44.4885 71.7105 44.7517 74.4955H43.0631C42.7342 72.478 41.5719 71.5131 39.2912 71.5131C37.1421 71.5131 35.7167 72.5657 35.7167 74.1885C35.7167 75.5043 36.7035 76.206 38.6553 76.4692L40.4535 76.6885C43.5236 77.0613 45.0367 78.4209 45.0367 80.8332C45.0367 83.3551 42.9534 84.9778 39.8175 84.9778C36.3746 84.9778 34.2474 83.2015 33.9404 80.4604H35.6729C36.0237 82.5217 37.3614 83.4647 39.8395 83.4647C41.9447 83.4647 43.3701 82.4559 43.3701 80.8551C43.3701 79.4735 42.3394 78.6402 40.278 78.399Z" fill="black"/>
<path d="M31.8683 70.1968V71.7757H23.6666V76.5563H31.2323V78.1352H23.6666L23.6666 83.2448H31.8683V84.8018H22L22 70.1968H31.8683Z" fill="black"/>
</svg>
