<svg width="300" height="300" viewBox="0 0 300 300" fill="none" xmlns="http://www.w3.org/2000/svg">
<path fill-rule="evenodd" clip-rule="evenodd" d="M300 0H0V300H300V0ZM149.996 60C168.892 60 185.497 69.7832 194.998 84.5484C204.499 69.7832 221.104 60 240 60V76.8202C219.803 76.8202 203.43 93.1511 203.43 113.296H186.566C186.566 93.1524 170.195 76.8224 150 76.8202C129.805 76.8224 113.434 93.1524 113.434 113.296H96.5701L96.5672 112.824C96.3141 92.8967 80.0392 76.8202 60 76.8202V60C78.8961 60 95.5014 69.7832 105.002 84.5484C114.501 69.7853 131.103 60.0028 149.996 60ZM60 158.005V141.185H240V158.005H60ZM113.434 186.704C113.434 206.847 129.805 223.177 150 223.179C170.195 223.177 186.566 206.847 186.566 186.704H203.43L203.433 187.175C203.686 207.103 219.961 223.18 240 223.18V239.999C221.104 239.999 204.499 230.216 194.998 215.451C185.499 230.214 168.897 239.996 150.004 239.999H150L149.996 239.999C131.103 239.997 114.501 230.214 105.002 215.451C95.5014 230.216 78.8962 239.999 60 239.999V223.18C80.1971 223.18 96.5701 206.849 96.5701 186.704H113.434Z" fill="black"/>
</svg>
