<svg width="595" height="117" viewBox="0 0 595 117" fill="none" xmlns="http://www.w3.org/2000/svg">
<path d="M437.32 114.55V0H459.41V60.87L487.72 29.45H513.58V31.74L486.58 61.03L515.22 112.25V114.54H491.17L470.55 78.21L459.42 90.48V114.53H437.33V114.55H437.32Z" fill="#292C33"/>
<path d="M338.49 72.01C338.49 45.33 319.84 27.99 294.8 27.99C269.76 27.99 250.78 46.97 250.78 72.01C250.78 97.05 268.62 116.02 294.64 116.02C315.09 116.02 330.47 105.88 336.2 87.88H311.33C308.71 92.46 302.82 96.06 294.8 96.06C283.84 96.06 275.98 89.68 273.36 79.86H338.49V72.01ZM273.86 62.35C276.96 53.19 284.82 47.46 294.97 47.46C305.12 47.46 312.64 52.37 315.58 62.35H273.86Z" fill="#292C33"/>
<path d="M222.28 114.55V0H244.37V114.55H222.28Z" fill="#292C33"/>
<path d="M169.05 27.99C142.54 27.99 123.72 46.97 123.72 72.01C123.72 97.05 142.54 116.02 169.05 116.02C195.56 116.02 214.38 97.21 214.38 72.01C214.38 46.81 195.56 27.99 169.05 27.99ZM169.05 94.91C156.12 94.91 146.47 85.59 146.47 72.01C146.47 58.43 156.12 49.26 169.05 49.26C181.98 49.26 191.63 58.59 191.63 72.01C191.63 85.43 181.98 94.91 169.05 94.91Z" fill="#292C33"/>
<path d="M422.83 50.85H346.26L346.53 114.7L368.62 114.61L368.42 77.62C368.41 74.76 369.14 72 370.49 69.58C371.84 67.16 373.79 65.09 376.23 63.59C378.84 61.98 381.8 61.17 384.76 61.16C387.72 61.16 390.68 61.93 393.31 63.52C398.2 66.47 401.2 71.77 401.22 77.49L401.42 114.48L423.11 114.39L422.83 50.85Z" fill="#292C33"/>
<path d="M423.81 19.86L412.35 40.37L407.75 12.99L401.23 43.88L401.19 44.05L401.06 43.88L396.6 38.24L396.07 14.45L389.84 29.69L383.04 21.09L384.43 12.86L381.01 18.51L376.74 13.12L379.6 20.85L368.99 38.38L364.39 10L357.84 42.06L343.4 16.08L346.27 45.96L346.3 52.34H422.87L422.84 44.26L423.81 19.86ZM384.01 43.95L379.2 43.97L382 27.33L386.18 38.64L384.01 43.95Z" fill="#25CC30"/>
<path d="M401.19 42.39L401.15 42.56L401.02 42.39H401.19Z" fill="#292C33"/>
<path d="M61.2 0H16.03V0.07H15.23L0 19.41L15.19 38.72L0 58.04L15.22 77.38H15.68L0.51 96.65L15.73 116H61.2C96.91 116 120 91.15 120 58.01C120 24.87 96.91 0 61.2 0ZM91.3 75.62L91.27 75.67C84.86 87.16 72.71 94.29 59.52 94.29H39.28V21.71H59.54C72.71 21.71 84.85 28.82 91.28 40.29C94.36 45.79 95.89 51.87 95.89 57.97C95.89 64.07 94.37 70.13 91.3 75.61V75.62Z" fill="#292C33"/>
<path d="M586.81 94.75V60.55C586.81 44.68 574.87 27.99 549.99 27.99C531.18 27.99 516.61 38.62 514.32 57.6H534.94V52.3L549.8 43.24L565.12 52.58C565.12 52.58 565.38 59.44 565.38 60.39V62.19H542.63C539.52 62.19 536.64 62.47 534 63.02C533.93 63.02 533.86 63.05 533.79 63.06C519.21 66.11 511.87 76.77 511.87 88.37C511.87 105.39 525.12 116.02 542.14 116.02C548.66 116.02 553.74 114.79 557.62 112.96C558.23 112.67 558.8 112.37 559.35 112.06C561.97 110.58 563.95 108.8 565.38 107C565.45 106.91 565.53 106.81 565.59 106.72C566.24 105.88 566.76 105.05 567.18 104.24V105.39C567.18 110.62 570.61 114.55 577.49 114.55H594.99V94.75H586.81ZM565.38 81.66C565.38 89.02 559.49 97.37 545.9 97.37C539.05 97.37 534.94 94.38 534 90.03C533.86 89.4 533.79 88.73 533.79 88.04C533.79 87.41 533.86 86.8 534 86.21C534.86 82.5 538.35 79.7 543.28 79.7H565.38V81.66Z" fill="#292C33"/>
</svg>
