<svg width="170" height="38" viewBox="0 0 170 38" fill="none" xmlns="http://www.w3.org/2000/svg">
<path d="M6.61392 33.9517H3.41499V16.4308C3.41499 14.3583 4.32897 12.4094 5.92264 11.0844L14.2243 4.17916C17.01 1.86297 20.3352 1.86386 23.1182 4.17916L31.4203 11.0849C33.0135 12.4094 33.9275 14.3583 33.9275 16.4308V26.6854C33.9275 30.9751 31.2628 33.6398 26.9736 33.6398H9.92843V18.5074C9.92843 15.4999 12.1116 13.3167 15.1191 13.3167C16.5525 13.3167 17.7986 13.8125 18.7103 14.6573C19.622 13.8125 20.8681 13.3167 22.3015 13.3167C25.309 13.3167 27.4922 15.4999 27.4922 18.5074V26.4351H24.2932V18.5074C24.2932 17.2417 23.5672 16.5156 22.3015 16.5156C21.0359 16.5156 20.3098 17.2417 20.3098 18.5074V26.7082H17.1108V18.5074C17.1108 17.2417 16.3847 16.5156 15.1191 16.5156C13.8535 16.5156 13.1274 17.2417 13.1274 18.5074V30.4409H26.9736C29.4652 30.4409 30.7286 29.1775 30.7286 26.6854V16.4308C30.7286 15.3116 30.235 14.2597 29.375 13.5443L21.0725 6.63816C19.4792 5.3136 17.8633 5.31316 16.2701 6.63861L7.96793 13.5439C7.1075 14.2597 6.61392 15.3116 6.61392 16.4308V33.9517Z" fill="#B7A492"/>
<path d="M58.2971 26.6105V18.0169C58.2971 17.7447 58.2667 17.4769 58.2074 17.2212C58.1462 16.9592 58.0481 16.7241 57.9164 16.5223C57.7781 16.3103 57.5795 16.1434 57.3255 16.0256C57.0774 15.9105 56.7668 15.852 56.4026 15.852C56.0617 15.852 55.7305 15.8953 55.4172 15.9801C55.1098 16.0636 54.8139 16.1649 54.5381 16.2813C54.2605 16.3992 53.9941 16.5348 53.7459 16.6839L53.6455 16.7446L53.679 16.8566C53.7249 17.0097 53.7562 17.1654 53.7718 17.3194C53.7874 17.4778 53.7955 17.6282 53.7955 17.771V26.6105H50.8304V18.0169C50.8304 17.7621 50.8 17.5028 50.7402 17.2458C50.6782 16.9811 50.5756 16.745 50.4345 16.5429C50.2882 16.3331 50.086 16.1671 49.8338 16.0502C49.5857 15.935 49.2751 15.8766 48.9109 15.8766C48.6052 15.8766 48.308 15.9109 48.0277 15.9792C47.7515 16.0462 47.4708 16.1394 47.1941 16.2568C46.9201 16.3728 46.6371 16.5165 46.3538 16.6834L46.2792 16.7272V26.6105H43.3141V13.6233H45.9847V14.9059L46.2181 14.7533C46.6867 14.4467 47.1499 14.195 47.5949 14.0044C48.0407 13.813 48.499 13.663 48.9564 13.5581C49.4112 13.4551 49.8753 13.4024 50.3355 13.4024C50.825 13.4024 51.2566 13.4582 51.6181 13.5675C51.9751 13.6769 52.2844 13.8371 52.5365 14.0437C52.79 14.2508 53.0051 14.5127 53.1756 14.8225L53.2519 14.9608L53.3862 14.8782C53.8892 14.5708 54.3805 14.3003 54.8469 14.0749C55.311 13.8514 55.7966 13.6773 56.2902 13.5577C56.7846 13.4385 57.3184 13.3779 57.8762 13.3779C58.3488 13.3779 58.7759 13.4377 59.1445 13.555C59.5096 13.6715 59.8323 13.8406 60.1032 14.0571C60.3732 14.2735 60.5967 14.5319 60.7672 14.8256C60.939 15.1228 61.0698 15.4566 61.1559 15.8168C61.2429 16.1809 61.2867 16.5741 61.2867 16.9851V26.6105H58.2971Z" fill="white"/>
<path d="M69.2925 26.8559C68.1857 26.8559 67.2369 26.7104 66.472 26.4235C65.7138 26.1392 65.0899 25.7157 64.6177 25.1645C64.1438 24.6129 63.7952 23.906 63.5801 23.0639C63.3637 22.2133 63.2539 21.2176 63.2539 20.1051C63.2539 18.9903 63.3557 18.0017 63.5565 17.1677C63.7546 16.3425 64.0876 15.6441 64.5454 15.092C65.0006 14.5422 65.6201 14.1151 66.3868 13.8224C67.1602 13.5274 68.138 13.3779 69.2925 13.3779C70.4626 13.3779 71.4489 13.5274 72.2232 13.8224C72.9886 14.1147 73.6085 14.5418 74.0646 15.092C74.522 15.6445 74.8549 16.3429 75.0531 17.1677C75.2543 18.0049 75.3561 18.9929 75.3561 20.1051C75.3561 21.2167 75.2463 22.2124 75.0294 23.0643C74.8148 23.906 74.4658 24.6125 73.9923 25.1645C73.5206 25.7157 72.8967 26.1392 72.138 26.4235C71.3726 26.7104 70.4153 26.8559 69.2925 26.8559ZM69.2925 15.557C68.5615 15.557 67.9675 15.7061 67.5266 16.0002C67.0794 16.2979 66.7572 16.7892 66.5684 17.46C66.3854 18.108 66.2926 18.9978 66.2926 20.1051C66.2926 21.2118 66.3939 22.1066 66.5939 22.7644C66.8 23.4437 67.1352 23.9382 67.5891 24.2349C68.0371 24.5281 68.6106 24.6772 69.2925 24.6772C70.0074 24.6772 70.5934 24.5281 71.0343 24.234C71.4797 23.9368 71.8059 23.4419 72.0041 22.7631C72.1955 22.1039 72.2928 21.2096 72.2928 20.1051C72.2928 19.0001 72.2045 18.1106 72.0295 17.4618C71.8483 16.7897 71.5301 16.2979 71.083 16.0002C70.6425 15.7061 70.04 15.557 69.2925 15.557Z" fill="white"/>
<path d="M76.8609 26.6105V13.6233H79.5315V15.391L79.785 15.1549C80.2344 14.7372 80.6619 14.3909 81.056 14.1258C81.442 13.8656 81.841 13.6742 82.2422 13.5559C82.6447 13.4377 83.0727 13.3779 83.514 13.3779C83.797 13.3779 84.092 13.3979 84.3901 13.4381C84.6413 13.472 84.8917 13.5269 85.1358 13.601L84.6699 16.2644C84.4173 16.2126 84.1643 16.1693 83.9144 16.1359C83.6064 16.0944 83.3146 16.0729 83.0472 16.0729C82.5572 16.0729 82.0445 16.1667 81.5232 16.3519C81.0002 16.538 80.4486 16.8597 79.8831 17.3091L79.826 17.3546V26.6105H76.8609V26.6105Z" fill="white"/>
<path d="M89.4545 13.6233H86.4894V26.6105H89.4545V13.6233Z" fill="white"/>
<path d="M95.7024 26.6105V13.6233H98.3724V15.3906L98.6259 15.1554C99.0771 14.7359 99.5051 14.3896 99.8974 14.1258C100.283 13.8656 100.682 13.6742 101.084 13.5559C101.486 13.4377 101.914 13.3779 102.355 13.3779C102.638 13.3779 102.933 13.3979 103.232 13.4381C103.482 13.472 103.733 13.5269 103.977 13.601L103.511 16.2644C103.259 16.2126 103.006 16.1693 102.756 16.1359C102.447 16.0944 102.156 16.0729 101.889 16.0729C101.399 16.0729 100.886 16.1667 100.364 16.3514C99.8416 16.5375 99.29 16.8597 98.7246 17.3091L98.6674 17.3546V26.6105H95.7024V26.6105Z" fill="white"/>
<path d="M110.682 26.8559C109.703 26.8559 108.827 26.7305 108.076 26.4828C107.333 26.2378 106.696 25.8536 106.183 25.3404C105.67 24.8285 105.278 24.1626 105.016 23.3616C104.752 22.5542 104.618 21.5742 104.618 20.4487C104.618 19.1451 104.777 18.0254 105.089 17.1199C105.399 16.222 105.845 15.4901 106.414 14.9447C106.984 14.3985 107.659 13.9968 108.42 13.7514C109.188 13.5033 110.04 13.3779 110.952 13.3779C112.75 13.3779 114.089 13.8326 114.932 14.7301C115.776 15.6307 116.205 17.1333 116.205 19.1955V19.7605C116.205 19.939 116.195 20.1144 116.174 20.284L114.845 20.3965C114.256 20.4456 113.593 20.4947 112.858 20.5442C112.137 20.5919 111.337 20.6334 110.48 20.6665C109.628 20.6991 107.747 20.7687 107.747 20.7687L107.714 20.8673C107.693 20.9316 107.682 21.0052 107.682 21.0873V21.2837C107.682 22.0607 107.817 22.693 108.082 23.1634C108.351 23.6409 108.759 24.0011 109.295 24.2345C109.819 24.4625 110.484 24.5786 111.271 24.5786C111.766 24.5786 112.279 24.5495 112.798 24.492C113.317 24.434 113.841 24.359 114.355 24.2693C114.813 24.1894 115.271 24.0979 115.717 23.9966L116.063 26.1155C115.581 26.2615 115.066 26.3918 114.532 26.5029C113.955 26.623 113.341 26.7131 112.707 26.7707C112.076 26.8274 111.394 26.8559 110.682 26.8559ZM110.706 15.4098C110.365 15.4098 110.027 15.4615 109.703 15.5642C109.371 15.6686 109.062 15.8538 108.786 16.114C108.51 16.3719 108.279 16.7196 108.099 17.1476C107.921 17.5706 107.798 18.1227 107.732 18.7881L107.715 18.9537H107.882C108.451 18.9537 109.011 18.9412 109.546 18.9166C110.079 18.8921 110.583 18.8671 111.058 18.8425C111.534 18.818 111.944 18.7934 112.289 18.7689C112.634 18.7444 112.905 18.7238 113.101 18.7073L113.242 18.6953L113.239 18.5533C113.223 17.8192 113.125 17.2154 112.947 16.7589C112.763 16.2858 112.481 15.9377 112.108 15.7244C111.743 15.5155 111.271 15.4098 110.706 15.4098Z" fill="white"/>
<path d="M127.772 26.8559C127.151 26.8559 126.651 26.7287 126.285 26.4775C125.922 26.2267 125.652 25.8357 125.484 25.3145L125.421 25.1177L125.253 25.2386C124.847 25.5305 124.414 25.8085 123.964 26.0656C123.518 26.3204 123.034 26.5176 122.526 26.652C122.015 26.7872 121.442 26.8559 120.821 26.8559C120.303 26.8559 119.833 26.7769 119.426 26.6207C119.022 26.4659 118.664 26.2334 118.361 25.9299C118.058 25.6264 117.821 25.252 117.658 24.8169C117.494 24.3773 117.41 23.8663 117.41 23.2977C117.41 22.5114 117.564 21.8647 117.866 21.3752C118.169 20.8869 118.631 20.4929 119.24 20.2041C119.864 19.9078 120.665 19.6722 121.621 19.5039C122.587 19.3334 123.734 19.1978 125.032 19.1005L125.172 19.0902V17.7219C125.172 17.0806 124.926 16.596 124.44 16.2813C123.975 15.9801 123.302 15.827 122.442 15.827C122.096 15.827 121.703 15.844 121.276 15.877C120.846 15.91 120.395 15.9685 119.934 16.0506C119.521 16.1247 119.097 16.226 118.674 16.3514L118.173 14.0674C118.863 13.8603 119.6 13.6938 120.366 13.5724C121.182 13.4435 121.955 13.3779 122.663 13.3779C123.93 13.3779 124.986 13.5434 125.8 13.8705C126.6 14.1928 127.2 14.6761 127.582 15.3071C127.967 15.9431 128.162 16.7473 128.162 17.6974V23.0032C128.162 23.5026 128.237 23.8386 128.392 24.0314C128.551 24.2314 128.756 24.3331 129.001 24.3331C129.088 24.3331 129.193 24.3246 129.317 24.3068C129.375 24.2987 129.432 24.2862 129.487 24.2706L129.723 26.3601C129.476 26.4958 129.195 26.6105 128.884 26.7024C128.539 26.8041 128.165 26.8559 127.772 26.8559ZM125.014 20.6174C124.308 20.6504 123.669 20.7169 123.115 20.816C122.559 20.9159 122.077 21.0512 121.683 21.2185C121.274 21.393 120.959 21.6336 120.747 21.9335C120.533 22.2369 120.424 22.6216 120.424 23.0768C120.424 23.6869 120.575 24.1559 120.871 24.4701C121.17 24.7865 121.574 24.9472 122.074 24.9472C122.432 24.9472 122.799 24.8869 123.164 24.7678C123.523 24.6509 123.88 24.4938 124.223 24.3014C124.571 24.1059 124.877 23.869 125.131 23.5976L125.172 23.5543V20.6102L125.014 20.6174Z" fill="white"/>
<path d="M134.404 26.8559C133.678 26.8559 133.051 26.7292 132.542 26.4788C132.046 26.2342 131.664 25.813 131.41 25.2274C131.15 24.6272 131.018 23.7962 131.018 22.7573V8.73566H133.983V22.4627C133.983 22.963 134.039 23.3397 134.155 23.6141C134.276 23.9038 134.451 24.1001 134.675 24.1979C134.882 24.2876 135.113 24.3331 135.361 24.3331C135.532 24.3331 135.722 24.3157 135.926 24.2818C136.078 24.2568 136.238 24.2224 136.411 24.1773L136.673 26.3976C136.38 26.5212 136.052 26.6274 135.695 26.7127C135.299 26.8077 134.865 26.8559 134.404 26.8559Z" fill="white"/>
<path d="M141.046 13.6233H138.081V26.6105H141.046V13.6233Z" fill="white"/>
<path d="M148.291 26.8559C147.47 26.8559 146.772 26.697 146.216 26.3842C145.667 26.0749 145.251 25.5947 144.979 24.9579C144.702 24.309 144.561 23.4611 144.561 22.4382V15.7043H142.522V13.829L144.544 13.6095L144.935 10.6761H147.526V13.6233H151.285V15.7288H147.526V22.1678C147.526 22.9679 147.676 23.5231 147.982 23.8654C148.289 24.2081 148.765 24.3822 149.396 24.3822C149.732 24.3822 150.079 24.3523 150.429 24.2938C150.726 24.2447 151.04 24.1791 151.364 24.0984L151.755 26.2923C151.155 26.4953 150.566 26.6399 150.001 26.7225C149.394 26.8108 148.819 26.8559 148.291 26.8559Z" fill="white"/>
<path d="M156.411 31.7485L158.057 26.6105H157.391L152.565 13.6434L155.824 13.5764L159.206 24.5897L162.36 13.5769L165.406 13.6434L159.462 31.8154L156.411 31.7485Z" fill="white"/>
<path d="M87.984 12.0247C87.3373 12.0247 86.871 11.9011 86.5983 11.6579C86.3301 11.4191 86.1944 11.0318 86.1944 10.5052C86.1944 9.96427 86.3296 9.57288 86.5965 9.34216C86.8696 9.10563 87.3364 8.98603 87.984 8.98603C88.6311 8.98603 89.0979 9.10563 89.3714 9.34216C89.6383 9.57288 89.7735 9.96427 89.7735 10.5052C89.7735 11.0313 89.6379 11.4191 89.3697 11.6579C89.0965 11.9011 88.6302 12.0247 87.984 12.0247Z" fill="white"/>
<path d="M139.576 12.0247C138.93 12.0247 138.463 11.9011 138.191 11.6579C137.923 11.4191 137.787 11.0318 137.787 10.5052C137.787 9.96427 137.922 9.57288 138.189 9.34216C138.462 9.10563 138.929 8.98603 139.576 8.98603C140.223 8.98603 140.69 9.10563 140.964 9.34216C141.231 9.57378 141.366 9.96516 141.366 10.5052C141.366 11.0304 141.23 11.4182 140.962 11.6579C140.689 11.9011 140.222 12.0247 139.576 12.0247Z" fill="white"/>
</svg>
