<svg id="Layer_1" data-name="Layer 1" xmlns="http://www.w3.org/2000/svg" xmlns:xlink="http://www.w3.org/1999/xlink" viewBox="0 0 1762.329 765.88">
  <defs>
    <style>
      .cls-1 {
        fill: none;
      }

      .cls-2 {
        opacity: 0.6;
      }

      .cls-3 {
        clip-path: url(#clip-path);
      }

      .cls-4 {
        stroke: #1d1d1b;
        stroke-linecap: round;
        stroke-linejoin: round;
        stroke-width: 6.05px;
        stroke-dasharray: 0.121 12.101;
        fill: url(#Nepojmenovaný_přechod_5);
      }

      .cls-5 {
        fill: #262c3a;
      }
    </style>
    <clipPath id="clip-path">
      <rect class="cls-1" x="-3588.176" y="-1876.676" width="2735.28" height="1521.035"/>
    </clipPath>
    <radialGradient id="Nepojmenovaný_přechod_5" data-name="Nepojmenovaný přechod 5" cx="-1620.347" cy="-911.292" r="1095.615" gradientTransform="translate(675.428 471.091) scale(1.742 1.73)" gradientUnits="userSpaceOnUse">
      <stop offset="0" stop-color="#fff"/>
      <stop offset="1" stop-color="#d0d0d0"/>
    </radialGradient>
  </defs>
  <g class="cls-2">
    <g class="cls-3">
      <rect class="cls-4" x="-4525.191" y="-2371.859" width="4756.745" height="2533.188"/>
    </g>
  </g>
  <g>
    <path class="cls-5" d="M115.5,213.672v231.2c0,113.321,90.665,205.513,202.108,205.513s202.108-92.192,202.108-205.513V213.67L317.523,115.5ZM367.527,468.107H216.6V337.116H374.435a65.5,65.5,0,1,1,0,130.991ZM216.6,601.027V486.551H367.527A61.34,61.34,0,0,1,428.8,547.822v45.831a180.551,180.551,0,0,1-212.2,7.374Zm284.67-375.81v219.65a188.235,188.235,0,0,1-54.031,132.392V547.822a79.74,79.74,0,0,0-38.911-68.446,83.923,83.923,0,0,0-33.895-160.7H198.159V586.85a188.144,188.144,0,0,1-64.216-141.983V225.215l183.583-89.21Z"/>
    <path class="cls-5" d="M317.607,268.446a41.624,41.624,0,1,0-41.623-41.624A41.671,41.671,0,0,0,317.607,268.446Zm0-64.8a23.181,23.181,0,1,1-23.18,23.18A23.206,23.206,0,0,1,317.607,203.642Z"/>
    <polygon class="cls-5" points="692.835 382.104 739.417 300.586 721.454 300.586 683.792 367.856 683.544 367.856 645.634 300.586 625.936 300.586 672.642 382.104 692.835 382.104"/>
    <rect class="cls-5" x="749.065" y="320.902" width="15.858" height="61.201"/>
    <rect class="cls-5" x="748.693" y="297.735" width="16.725" height="14.371"/>
    <rect class="cls-5" x="780.149" y="295.381" width="15.858" height="86.722"/>
    <path class="cls-5" d="M834.129,347.167c-15.362,0-25.149,4.956-25.149,16.849,0,9.664,8.177,19.2,30.476,19.2,20.566,0,29.362-6.073,32.087-15.858h.124c-.124,4.21-.371,10.528-.744,14.742h15.858V347.416c0-17.1-13.131-27.751-39.148-27.751-25.521,0-36.671,8.3-36.671,20.192a20.058,20.058,0,0,0,.124,2.229H826.2a7.777,7.777,0,0,1-.123-1.486c0-5.2,5.2-9.661,21.184-9.661,16.849,0,23.662,4.954,23.662,14.99v1.238Zm36.794,9.788c0,7.186-8.795,15.115-28.369,15.115-15.611,0-19.079-4.587-19.079-8.672,0-5.824,5.079-6.816,14.371-6.816h33.077Z"/>
    <path class="cls-5" d="M760.7,452.769c0-20.537-14.745-33.7-53.186-33.7H634.847v115.5h24.224V489.982h53.712c16.676,0,23.17,6.495,23.17,20.012v24.573H760V509.994c0-14.4-4.389-25.979-20.889-29.493v-.348C754.033,476.292,760.7,465.406,760.7,452.769Zm-50.2,21.24H659.071V438.2h46.516c23.7,0,32.473,7.021,32.473,17.9C738.06,466.811,729.634,474.009,710.5,474.009Z"/>
    <path class="cls-5" d="M834.642,446.1c-36.511,0-57.75,18.077-57.75,45.813,0,21.591,13.341,44.41,59.155,44.41,37.037,0,51.957-14.921,53.01-30.017H868.52c-1.4,7.2-9.479,14.042-32.473,14.042-26.506,0-34.931-10.706-36.511-23.871h89.521v-7.021C889.057,462.6,871.68,446.1,834.642,446.1Zm33.878,36.861H800.238c2.984-13.516,13.516-20.888,35.282-20.888,23.7,0,33,8.777,33,20.359Z"/>
    <path class="cls-5" d="M972.754,446.1c-23.7,0-38.266,8.423-43.531,23.7h-.176l.35-21.942H906.93V569.323H929.4V534.567c0-4.213-.526-12.991-.877-18.432h.176c6.494,12.816,19.133,20.188,44.76,20.188,33.176,0,54.24-16.15,54.24-46.518C1027.7,463.826,1008.563,446.1,972.754,446.1Zm-3.335,72.668c-26.857,0-40.022-12.462-40.022-24.4v-1.754c.352-16.149,14.746-28.963,39.847-28.963,24.4,0,36.16,11.234,36.16,26.681C1005.4,509.465,993.116,518.768,969.419,518.768Z"/>
    <path class="cls-5" d="M1139.986,483.312c0,21.94-18.957,34.579-41.25,34.579-24.75,0-32.823-9.828-32.823-25.8V447.854h-22.468v48.975c0,20.885,14.217,39.494,47.919,39.494,28.085,0,43.708-9.129,48.974-28.612h.351c0,8.952-.351,20.537-.7,26.856h22.468V447.854h-22.468Z"/>
    <path class="cls-5" d="M1249.259,446.1c-27.031,0-39.319,10.354-43.706,23.345h-.351c.175-3.337.351-9.655.351-13.868V411.7h-22.468V534.567h22.468c-.351-4.916-.878-12.991-.878-19.132h.175c3.511,10.531,15.623,20.888,45.639,20.888,33.175,0,53.361-17.906,53.361-46.518C1303.85,464.355,1285.419,446.1,1249.259,446.1Zm-3.686,72.668c-26.855,0-40.02-12.462-40.02-24.573v-1.054c0-16.675,15.8-29.489,40.2-29.489,25.277,0,35.633,12.111,35.633,26.5C1281.382,507.885,1270.148,518.768,1245.573,518.768Z"/>
    <rect class="cls-5" x="1321.161" y="411.695" width="22.468" height="122.872"/>
    <rect class="cls-5" x="1363.868" y="415.028" width="23.696" height="20.363"/>
    <rect class="cls-5" x="1364.393" y="447.854" width="22.468" height="86.713"/>
    <polygon class="cls-5" points="1528.131 447.854 1496.536 447.854 1430.361 494.546 1430.185 494.546 1430.185 411.695 1407.717 411.695 1407.717 534.567 1430.185 534.567 1430.185 514.732 1454.409 498.582 1497.765 534.567 1531.116 534.567 1471.26 486.294 1528.131 447.854"/>
    <path class="cls-5" d="M1591.361,446.1c-36.159,0-51.957,11.759-51.957,28.609a28.624,28.624,0,0,0,.175,3.162h21.415a11,11,0,0,1-.175-2.108c0-7.372,7.373-13.69,30.016-13.69,23.872,0,33.527,7.02,33.527,21.239v1.754h-52.135c-21.765,0-35.632,7.021-35.632,23.873,0,13.691,11.585,27.207,43.18,27.207,29.139,0,41.6-8.6,45.464-22.468h.175c-.175,5.967-.527,14.922-1.052,20.889h22.468v-49.15C1646.83,461.2,1628.224,446.1,1591.361,446.1Zm33,52.834c0,10.18-12.464,21.414-40.2,21.414-22.117,0-27.031-6.493-27.031-12.285,0-8.253,7.2-9.655,20.362-9.655h46.867Z"/>
  </g>
</svg>
